<svg id="visual" viewBox="0 0 1920 80" width="1920" height="80" xmlns="http://www.w3.org/2000/svg" xmlns:xlink="http://www.w3.org/1999/xlink" version="1.1"><path d="M0 37L53.3 38.8C106.7 40.7 213.3 44.3 320 46.2C426.7 48 533.3 48 640 45C746.7 42 853.3 36 960 34.2C1066.7 32.3 1173.3 34.7 1280 37.8C1386.7 41 1493.3 45 1600 45.8C1706.7 46.7 1813.3 44.3 1866.7 43.2L1920 42L1920 81L1866.7 81C1813.3 81 1706.7 81 1600 81C1493.3 81 1386.7 81 1280 81C1173.3 81 1066.7 81 960 81C853.3 81 746.7 81 640 81C533.3 81 426.7 81 320 81C213.3 81 106.7 81 53.3 81L0 81Z" fill="#f8f9fa" stroke-linecap="round" stroke-linejoin="miter"></path></svg>