<svg id="visual" viewBox="0 0 1920 200" width="1920" height="200" xmlns="http://www.w3.org/2000/svg" xmlns:xlink="http://www.w3.org/1999/xlink" version="1.1"><path d="M0 117L64 110.7C128 104.3 256 91.7 384 85.8C512 80 640 81 768 87.2C896 93.3 1024 104.7 1152 110.7C1280 116.7 1408 117.3 1536 116.8C1664 116.3 1792 114.7 1856 113.8L1920 113L1920 201L1856 201C1792 201 1664 201 1536 201C1408 201 1280 201 1152 201C1024 201 896 201 768 201C640 201 512 201 384 201C256 201 128 201 64 201L0 201Z" fill="#f8f9fa" stroke-linecap="round" stroke-linejoin="miter"></path></svg>